<?xml version="1.0" encoding="utf-8"?>
<!-- Generator: Adobe Illustrator 26.1.0, SVG Export Plug-In . SVG Version: 6.00 Build 0)  -->
<svg version="1.1" id="artwork" xmlns="http://www.w3.org/2000/svg" xmlns:xlink="http://www.w3.org/1999/xlink" x="0px" y="0px"
	 viewBox="0 0 155 46" style="enable-background:new 0 0 155 46;" xml:space="preserve">
<style type="text/css">
	.st0{fill:#FFFFFF;}
	.st1{fill:#EA4335;}
	.st2{fill:#FBBC04;}
	.st3{fill:#4285F4;}
	.st4{fill:#34A853;}
</style>
<g>
	<path class="st0" d="M149.3,46H5.7C2.6,46,0,43.4,0,40.2V5.7C0,2.6,2.6,0,5.7,0h143.5c3.2,0,5.7,2.6,5.7,5.7v34.5
		C155,43.4,152.4,46,149.3,46z"/>
</g>
<g>
	<g>
		<path d="M149.3,0.9c2.7,0,4.8,2.2,4.8,4.8v34.5c0,2.7-2.2,4.8-4.8,4.8H5.7c-2.7,0-4.8-2.2-4.8-4.8V5.8c0-2.7,2.2-4.8,4.8-4.8
			H149.3 M149.3,0H5.7C2.6,0,0,2.6,0,5.8v34.5C0,43.4,2.6,46,5.7,46h143.5c3.2,0,5.7-2.6,5.7-5.7V5.8C155,2.6,152.4,0,149.3,0
			L149.3,0z"/>
	</g>
</g>
<g>
	<path d="M54.4,11.8c0,1-0.3,1.7-0.9,2.3c-0.6,0.7-1.5,1-2.5,1c-1,0-1.8-0.3-2.5-1c-0.7-0.7-1-1.5-1-2.6c0-1,0.3-1.9,1-2.6
		c0.7-0.7,1.5-1,2.5-1c0.5,0,1,0.1,1.4,0.3c0.4,0.2,0.8,0.4,1.1,0.8l-0.6,0.6c-0.5-0.5-1.1-0.8-1.9-0.8c-0.7,0-1.4,0.3-1.9,0.8
		c-0.5,0.5-0.8,1.2-0.8,2s0.3,1.5,0.8,2c0.5,0.5,1.2,0.8,1.9,0.8c0.8,0,1.4-0.3,1.9-0.8c0.3-0.3,0.5-0.8,0.6-1.4h-2.5v-0.8h3.3
		C54.4,11.4,54.4,11.6,54.4,11.8z"/>
	<path d="M59.7,8.9h-3.1v2.2h2.8v0.8h-2.8v2.2h3.1V15h-4V8.1h4V8.9z"/>
	<path d="M63.5,15h-0.9V8.9h-1.9V8.1h4.7v0.8h-1.9V15z"/>
	<path d="M68.8,15V8.1h0.9V15H68.8z"/>
	<path d="M73.6,15h-0.9V8.9h-1.9V8.1h4.7v0.8h-1.9V15z"/>
	<path d="M84.5,14.1c-0.7,0.7-1.5,1-2.5,1c-1,0-1.8-0.3-2.5-1c-0.7-0.7-1-1.5-1-2.6s0.3-1.9,1-2.6c0.7-0.7,1.5-1,2.5-1
		c1,0,1.8,0.4,2.5,1.1c0.7,0.7,1,1.6,1,2.6C85.5,12.5,85.2,13.4,84.5,14.1z M80.1,13.5c0.5,0.5,1.1,0.8,1.9,0.8s1.4-0.3,1.9-0.8
		c0.5-0.5,0.8-1.2,0.8-2s-0.3-1.5-0.8-2C83.4,9,82.7,8.7,82,8.7S80.6,9,80.1,9.5c-0.5,0.5-0.8,1.2-0.8,2S79.6,13,80.1,13.5z"/>
	<path d="M86.8,15V8.1h1.1l3.3,5.4h0l0-1.3v-4h0.9V15h-0.9l-3.5-5.6h0l0,1.3V15H86.8z"/>
</g>
<path d="M78.2,25c-2.7,0-4.9,2.1-4.9,4.9c0,2.8,2.2,4.9,4.9,4.9c2.7,0,4.9-2.1,4.9-4.9C83.1,27.1,80.9,25,78.2,25z M78.2,32.9
	c-1.5,0-2.8-1.2-2.8-3c0-1.8,1.3-3,2.8-3c1.5,0,2.8,1.2,2.8,3C81,31.6,79.7,32.9,78.2,32.9z M67.5,25c-2.7,0-4.9,2.1-4.9,4.9
	c0,2.8,2.2,4.9,4.9,4.9c2.7,0,4.9-2.1,4.9-4.9C72.4,27.1,70.2,25,67.5,25z M67.5,32.9c-1.5,0-2.8-1.2-2.8-3c0-1.8,1.3-3,2.8-3
	c1.5,0,2.8,1.2,2.8,3C70.3,31.6,69,32.9,67.5,32.9z M54.8,26.5v2.1h5c-0.1,1.2-0.5,2-1.1,2.6c-0.7,0.7-1.8,1.5-3.8,1.5
	c-3.1,0-5.4-2.5-5.4-5.5s2.4-5.5,5.4-5.5c1.6,0,2.8,0.6,3.7,1.5l1.5-1.5c-1.2-1.2-2.9-2.1-5.2-2.1c-4.2,0-7.7,3.4-7.7,7.6
	c0,4.2,3.5,7.6,7.7,7.6c2.3,0,4-0.7,5.3-2.1c1.4-1.4,1.8-3.3,1.8-4.9c0-0.5,0-0.9-0.1-1.3H54.8z M106.8,28.1
	c-0.4-1.1-1.6-3.1-4.2-3.1c-2.5,0-4.6,2-4.6,4.9c0,2.7,2.1,4.9,4.8,4.9c2.2,0,3.5-1.4,4.1-2.2l-1.7-1.1c-0.6,0.8-1.3,1.4-2.4,1.4
	c-1.1,0-1.9-0.5-2.4-1.5l6.5-2.7L106.8,28.1z M100.2,29.8c-0.1-1.9,1.5-2.9,2.6-2.9c0.9,0,1.6,0.4,1.8,1L100.2,29.8z M94.9,34.5H97
	V20.1h-2.1V34.5z M91.4,26.1L91.4,26.1c-0.6-0.6-1.5-1.1-2.6-1.1c-2.4,0-4.7,2.1-4.7,4.9c0,2.7,2.2,4.9,4.7,4.9
	c1.2,0,2.1-0.5,2.6-1.1h0.1v0.7c0,1.9-1,2.9-2.6,2.9c-1.3,0-2.1-0.9-2.5-1.7l-1.9,0.8c0.5,1.3,2,2.9,4.3,2.9c2.5,0,4.6-1.5,4.6-5.1
	v-8.8h-2V26.1z M88.9,32.9c-1.5,0-2.7-1.2-2.7-2.9c0-1.7,1.2-3,2.7-3c1.5,0,2.6,1.3,2.6,3C91.5,31.6,90.4,32.9,88.9,32.9z
	 M116.9,20.1h-5.1v14.4h2.1v-5.4h3c2.4,0,4.7-1.7,4.7-4.5S119.3,20.1,116.9,20.1z M116.9,27.1h-3v-4.9h3c1.6,0,2.5,1.3,2.5,2.5
	C119.5,25.7,118.5,27.1,116.9,27.1z M130.2,25c-1.6,0-3.2,0.7-3.8,2.2l1.9,0.8c0.4-0.8,1.2-1.1,2-1.1c1.1,0,2.2,0.7,2.3,1.8v0.1
	c-0.4-0.2-1.2-0.6-2.2-0.6c-2,0-4.1,1.1-4.1,3.2c0,1.9,1.7,3.2,3.6,3.2c1.4,0,2.2-0.6,2.7-1.4h0.1v1.1h2.1V29
	C134.5,26.4,132.6,25,130.2,25z M129.9,32.9c-0.7,0-1.7-0.4-1.7-1.2c0-1.1,1.2-1.5,2.3-1.5c0.9,0,1.4,0.2,2,0.5
	C132.3,31.9,131.2,32.9,129.9,32.9z M142.1,25.3l-2.5,6.2h-0.1l-2.5-6.2h-2.3l3.8,8.7l-2.2,4.8h2.2l5.9-13.6H142.1z M122.8,34.5h2.1
	V20.1h-2.1V34.5z"/>
<g>
	<path class="st1" d="M23.8,22.3l-12.2,13c0,0,0,0,0,0c0.4,1.4,1.7,2.4,3.2,2.4c0.6,0,1.2-0.2,1.7-0.5l0,0l13.8-8L23.8,22.3z"/>
	<path class="st2" d="M36.2,20.1L36.2,20.1l-6-3.5l-6.7,6l6.7,6.7l5.9-3.4c1-0.6,1.7-1.7,1.7-2.9C37.9,21.8,37.2,20.7,36.2,20.1z"/>
	<path class="st3" d="M11.6,10.7c-0.1,0.3-0.1,0.6-0.1,0.9v23c0,0.3,0,0.6,0.1,0.9l12.6-12.7L11.6,10.7z"/>
	<path class="st4" d="M23.9,23l6.3-6.3l-13.7-8c-0.5-0.3-1.1-0.5-1.7-0.5c-1.5,0-2.8,1-3.2,2.5c0,0,0,0,0,0L23.9,23z"/>
</g>
</svg>
