<?xml version="1.0" encoding="utf-8"?>
<!-- Generator: Adobe Illustrator 26.1.0, SVG Export Plug-In . SVG Version: 6.00 Build 0)  -->
<svg version="1.1" id="Layer_1" xmlns="http://www.w3.org/2000/svg" xmlns:xlink="http://www.w3.org/1999/xlink" x="0px" y="0px"
	 viewBox="0 0 150 150" style="enable-background:new 0 0 150 150;" xml:space="preserve">
<style type="text/css">
	.st0{fill:#F52A5C;}
	.st1{fill:#181A1F;}
	.st2{fill:#FFFFFF;}
</style>
<path class="st0" d="M75,0C33.8,0,0,33.8,0,75s33.8,75,75,75s75-33.8,75-75S116.2,0,75,0z M75,140.6c-36.1,0-65.6-29.5-65.6-65.6
	S38.9,9.4,75,9.4s65.6,29.5,65.6,65.6S111.1,140.6,75,140.6z"/>
<circle class="st1" cx="75" cy="75" r="65.6"/>
<path class="st2" d="M113.7,78.1l-28.2,27.6c-2.9,2.8-7.8,0.8-7.8-3.1V85H45.2C39.6,85,35,80.5,35,75l0,0c0-5.5,4.6-10,10.2-10h32.4
	V47.4c0-4,4.9-5.9,7.8-3.1l28.2,27.6C115.4,73.6,115.4,76.4,113.7,78.1z"/>
</svg>
