<?xml version="1.0" encoding="utf-8"?>
<!-- Generator: Adobe Illustrator 26.1.0, SVG Export Plug-In . SVG Version: 6.00 Build 0)  -->
<svg version="1.1" id="Layer_1" xmlns="http://www.w3.org/2000/svg" xmlns:xlink="http://www.w3.org/1999/xlink" x="0px" y="0px"
	 viewBox="0 0 56 56" style="enable-background:new 0 0 56 56;" xml:space="preserve">
<path d="M54.9,44l-7.7,6.8c-2,1.8-5.2,0.3-5.2-2.4v-4h-4.4c-2.6,0-5.1-1.2-6.7-3.3l-5.1-6.7l-3.5-4.6l-8.8-11.5
	c-0.5-0.7-1.4-1.1-2.2-1.1H2.8c-1.5,0-2.8-1.3-2.8-2.8s1.3-2.8,2.8-2.8h8.4c2.6,0,5.1,1.2,6.7,3.3l7.9,10.3l3.5,4.6l6,7.9
	c0.5,0.7,1.3,1.1,2.2,1.1H42v-3.9c0-2.7,3.2-4.1,5.2-2.4l7.7,6.8C56.4,40.5,56.4,42.7,54.9,44z M16.3,37.7c-0.5,0.7-1.4,1.1-2.2,1.1
	H2.8C1.3,38.8,0,40,0,41.6c0,1.6,1.3,2.8,2.8,2.8H14c2.6,0,5.1-1.2,6.7-3.3l1.6-2.1l-3.5-4.6L16.3,37.7z M54.9,12l-7.7-6.8
	C45.2,3.5,42,5,42,7.6v4h-1.6c-2.6,0-5.1,1.2-6.7,3.3l-4.4,5.7l3.5,4.6l5.3-6.9c0.5-0.7,1.3-1.1,2.2-1.1H42v4c0,2.7,3.2,4.1,5.2,2.4
	l7.7-6.8C56.4,15.5,56.4,13.3,54.9,12z"/>
</svg>
