<?xml version="1.0" encoding="utf-8"?>
<!-- Generator: Adobe Illustrator 26.1.0, SVG Export Plug-In . SVG Version: 6.00 Build 0)  -->
<svg version="1.1" id="Layer_1" xmlns="http://www.w3.org/2000/svg" viewBox="0 0 32 32" xml:space="preserve">
	<style type="text/css">
		.st0{fill:url(#SVGID_1_);}
		.st1{fill:#F52A5C;}
		.st2{fill:#181A1F;}
	</style>
	<path class="st1" d="M16,0C7.2,0,0,7.2,0,16c0,8.8,7.2,16,16,16s16-7.2,16-16C32,7.2,24.8,0,16,0z M16,30C8.3,
		30,2,23.7,2,16C2,8.3,8.3,2,16,2s14,6.3,14,14C30,23.7,23.7,30,16,30z"/>
	<circle class="st2" cx="16" cy="16" r="14"/>
	<circle class="st2" cx="14.5" cy="14" r="5"/>
	<path class="st1" d="M24.3,22.3l-4-4c0,0,0,0-0.1,0c0.9-1.2,1.4-2.6,1.4-4.2c0-3.9-3.1-7-7-7c-3.9,0-7,3.1-7,
		7c0,3.9,3.1,7,7,7c1.6,0,3-0.5,4.2-1.4c0,0,0,0,0,0.1l4.1,4.1c0.2,0.2,0.5,0.3,0.7,0.3c0.3,0,0.5-0.1,
		0.7-0.3C24.7,23.3,24.7,22.7,24.3,22.3zM14.5,19c-2.8,0-5-2.2-5-5c0-2.8,2.2-5,5-5c2.8,0,5,2.2,5,5C19.5,
		16.8,17.3,19,14.5,19z"/>
</svg>
