<?xml version="1.0" encoding="utf-8"?>
<!-- Generator: Adobe Illustrator 26.1.0, SVG Export Plug-In . SVG Version: 6.00 Build 0)  -->
<svg version="1.1" id="Layer_1" xmlns="http://www.w3.org/2000/svg" viewBox="0 0 32 32" xml:space="preserve">
	<style type="text/css">
		.st0{fill:#181A1F;}
		.st1{fill:#FF2C60;}
	</style>
	<circle class="st0" cx="16" cy="16" r="14"/>
	<path class="st1" d="M16,0C7.2,0,0,7.2,0,16c0,3.1,0.9,6,2.4,8.5c0.2,0.3,0.4,0.6,0.6,0.9c0.2,0.3,0.4,0.5,
		0.6,0.8c0,0,0,0.1,0.1,0.1C6.7,29.8,11.1,32,16,32s9.3-2.2,12.3-5.7c0,0,0,0,0.1-0.1c0.2-0.2,0.4-0.5,
		0.6-0.8c0.2-0.3,0.4-0.6,0.6-0.9C31.1,22,32,19.1,32,16C32,7.2,24.8,0,16,0L16,0z M3.7,22.7C2.6,20.7,2,
		18.4,2,16C2,8.3,8.3,2,16,2s14,6.3,14,14c0,2.4-0.6,4.7-1.7,6.7c-2.1-2.5-4.9-4.3-8.2-5.2c1.5-1.2,2.4-3,
		2.4-5C22.5,8.9,19.6,6,16,6s-6.5,2.9-6.5,6.5c0,2,0.9,3.8,2.4,5C8.6,18.4,5.8,20.2,3.7,22.7L3.7,22.7z M16,
		17c-2.5,0-4.5-2-4.5-4.5c0-2.5,2-4.5,4.5-4.5s4.5,2,4.5,4.5C20.5,15,18.5,17,16,17L16,17z M16,30c-4.5,
		0-8.6-2.2-11.1-5.5C7.4,21.2,11.5,19,16,19s8.6,2.2,11.1,5.5C24.6,27.8,20.5,30,16,30L16,30z"/>
</svg>
