<?xml version="1.0" encoding="utf-8"?>
<!-- Generator: Adobe Illustrator 26.1.0, SVG Export Plug-In . SVG Version: 6.00 Build 0)  -->
<svg version="1.1" id="livetype" xmlns="http://www.w3.org/2000/svg" xmlns:xlink="http://www.w3.org/1999/xlink" x="0px" y="0px"
	 viewBox="0 0 119.7 40" style="enable-background:new 0 0 119.7 40;" xml:space="preserve">
<style type="text/css">
	.st0{fill:#FFFFFF;}
	.st1{fill:#EA4335;}
	.st2{fill:#FBBC04;}
	.st3{fill:#4285F4;}
	.st4{fill:#34A853;}
</style>
<path d="M110.1,0H9.5C9.2,0,8.8,0,8.4,0C8.1,0,7.8,0,7.5,0c-0.7,0-1.3,0.1-2,0.2C4.9,0.3,4.2,0.5,3.6,0.8C3,1.1,2.5,1.5,2,2
	C1.5,2.5,1.1,3,0.8,3.6C0.5,4.2,0.3,4.9,0.2,5.5C0.1,6.2,0,6.9,0,7.5c0,0.3,0,0.6,0,0.9v23.1c0,0.3,0,0.6,0,0.9c0,0.7,0.1,1.3,0.2,2
	c0.1,0.7,0.3,1.3,0.6,1.9C1.1,37,1.5,37.5,2,38c0.5,0.5,1,0.9,1.6,1.2c0.6,0.3,1.2,0.5,1.9,0.6c0.7,0.1,1.3,0.2,2,0.2
	c0.3,0,0.6,0,0.9,0c0.4,0,0.7,0,1.1,0h100.6c0.4,0,0.7,0,1.1,0c0.3,0,0.6,0,0.9,0c0.7,0,1.3-0.1,2-0.2c0.7-0.1,1.3-0.3,1.9-0.6
	c0.6-0.3,1.1-0.7,1.6-1.2c0.5-0.5,0.9-1,1.2-1.6c0.3-0.6,0.5-1.2,0.6-1.9c0.1-0.7,0.2-1.3,0.2-2c0-0.3,0-0.6,0-0.9
	c0-0.4,0-0.7,0-1.1V9.5c0-0.4,0-0.7,0-1.1c0-0.3,0-0.6,0-0.9c0-0.7-0.1-1.3-0.2-2c-0.1-0.7-0.3-1.3-0.6-1.9
	c-0.6-1.2-1.6-2.2-2.8-2.8c-0.6-0.3-1.2-0.5-1.9-0.6c-0.7-0.1-1.3-0.2-2-0.2c-0.3,0-0.6,0-0.9,0C110.9,0,110.5,0,110.1,0L110.1,0z"
	/>
<path class="st0" d="M8.4,39.1c-0.3,0-0.6,0-0.9,0c-0.6,0-1.3-0.1-1.9-0.2c-0.6-0.1-1.1-0.3-1.7-0.5c-0.5-0.3-1-0.6-1.4-1
	c-0.4-0.4-0.8-0.9-1-1.4c-0.3-0.5-0.4-1.1-0.5-1.7c-0.1-0.6-0.2-1.2-0.2-1.9c0-0.2,0-0.9,0-0.9V8.4c0,0,0-0.7,0-0.9
	c0-0.6,0.1-1.3,0.2-1.9C1.1,5.1,1.3,4.5,1.6,4c0.3-0.5,0.6-1,1-1.4C3,2.2,3.5,1.9,4,1.6c0.5-0.3,1.1-0.4,1.7-0.5
	c0.6-0.1,1.2-0.2,1.9-0.2l0.9,0h102.8l0.9,0c0.6,0,1.2,0.1,1.9,0.2c0.6,0.1,1.1,0.3,1.7,0.5c1,0.5,1.9,1.4,2.4,2.4
	c0.3,0.5,0.4,1.1,0.5,1.6c0.1,0.6,0.2,1.3,0.2,1.9c0,0.3,0,0.6,0,0.9c0,0.4,0,0.7,0,1.1v20.9c0,0.4,0,0.7,0,1.1c0,0.3,0,0.6,0,0.9
	c0,0.6-0.1,1.2-0.2,1.9c-0.1,0.6-0.3,1.1-0.5,1.7c-0.3,0.5-0.6,1-1,1.4c-0.4,0.4-0.9,0.8-1.4,1c-0.5,0.3-1.1,0.5-1.7,0.5
	c-0.6,0.1-1.2,0.2-1.9,0.2c-0.3,0-0.6,0-0.9,0l-1.1,0L8.4,39.1z"/>
<g>
	<path d="M42.1,12.1c0,0.7-0.2,1.3-0.7,1.7c-0.4,0.5-1.1,0.7-1.9,0.7s-1.3-0.2-1.9-0.7c-0.5-0.5-0.7-1.1-0.7-1.9
		c0-0.7,0.2-1.4,0.7-1.9s1.1-0.7,1.9-0.7c0.4,0,0.7,0.1,1,0.2c0.3,0.1,0.6,0.3,0.8,0.6L41,10.5c-0.4-0.4-0.8-0.6-1.4-0.6
		c-0.5,0-1,0.2-1.4,0.6c-0.4,0.4-0.6,0.9-0.6,1.5s0.2,1.1,0.6,1.5c0.4,0.4,0.9,0.6,1.4,0.6c0.6,0,1-0.2,1.4-0.6
		c0.2-0.2,0.4-0.6,0.4-1h-1.9v-0.6H42C42.1,11.8,42.1,12,42.1,12.1z"/>
	<path d="M46.1,10h-2.3v1.6h2.1v0.6h-2.1v1.6h2.3v0.7h-3V9.4h3V10z"/>
	<path d="M48.9,14.5h-0.7V10h-1.4V9.4h3.5V10h-1.4C48.9,10,48.9,14.5,48.9,14.5z"/>
	<path d="M52.9,14.5V9.4h0.7v5.2H52.9z"/>
	<path d="M56.5,14.5h-0.7V10h-1.4V9.4h3.5V10h-1.4C56.5,10,56.5,14.5,56.5,14.5z"/>
	<path d="M64.6,13.9c-0.5,0.5-1.1,0.7-1.9,0.7c-0.7,0-1.3-0.2-1.9-0.7c-0.5-0.5-0.7-1.1-0.7-1.9c0-0.8,0.2-1.4,0.7-1.9
		c0.5-0.5,1.1-0.7,1.9-0.7c0.7,0,1.3,0.3,1.9,0.8c0.5,0.5,0.7,1.2,0.7,1.9C65.4,12.7,65.2,13.3,64.6,13.9z M61.3,13.4
		c0.4,0.4,0.8,0.6,1.4,0.6c0.6,0,1-0.2,1.4-0.6c0.4-0.4,0.6-0.9,0.6-1.5c0-0.6-0.2-1.1-0.6-1.5c-0.4-0.4-0.9-0.6-1.4-0.6
		c-0.5,0-1,0.2-1.4,0.6c-0.4,0.4-0.6,0.9-0.6,1.5C60.7,12.5,61,13,61.3,13.4z"/>
	<path d="M66.4,14.5V9.4h0.8l2.5,4l0,0v-1v-3h0.7v5.1h-0.7L67,10.3l0,0v1v3.2H66.4z"/>
	<path d="M59.9,22c-2,0-3.7,1.6-3.7,3.7s1.6,3.7,3.7,3.7c2,0,3.7-1.6,3.7-3.7S61.9,22,59.9,22z M59.9,27.9c-1.1,0-2.1-0.9-2.1-2.2
		c0-1.3,1-2.2,2.1-2.2c1.1,0,2.1,0.9,2.1,2.2C62,27,61,27.9,59.9,27.9z M51.9,22c-2,0-3.7,1.6-3.7,3.7s1.6,3.7,3.7,3.7
		c2,0,3.7-1.6,3.7-3.7S53.9,22,51.9,22z M51.9,27.9c-1.1,0-2.1-0.9-2.1-2.2c0-1.3,1-2.2,2.1-2.2c1.1,0,2.1,0.9,2.1,2.2
		C54,27,53,27.9,51.9,27.9z M42.4,23.1v1.6h3.7c-0.1,0.9-0.4,1.5-0.8,1.9c-0.5,0.5-1.3,1.1-2.8,1.1c-2.3,0-4-1.9-4-4.1
		s1.8-4.1,4-4.1c1.2,0,2.1,0.4,2.8,1.1l1.1-1.1c-0.9-0.9-2.2-1.6-3.9-1.6c-3.1,0-5.8,2.5-5.8,5.7s2.6,5.7,5.8,5.7c1.7,0,3-0.5,4-1.6
		c1-1,1.3-2.5,1.3-3.7c0-0.4,0-0.7-0.1-1C47.7,23.1,42.4,23.1,42.4,23.1z M81.3,24.3C81,23.5,80.1,22,78.2,22
		c-1.9,0-3.4,1.5-3.4,3.7c0,2,1.6,3.7,3.6,3.7c1.6,0,2.6-1,3.1-1.6l-1.3-0.8c-0.4,0.6-1,1-1.8,1s-1.4-0.4-1.8-1.1l4.9-2L81.3,24.3z
		 M76.4,25.6c-0.1-1.4,1.1-2.2,1.9-2.2c0.7,0,1.2,0.3,1.3,0.7L76.4,25.6z M72.4,29.1H74V18.3h-1.6V29.1z M69.8,22.8L69.8,22.8
		c-0.4-0.4-1.1-0.8-1.9-0.8c-1.8,0-3.5,1.6-3.5,3.7c0,2,1.6,3.7,3.5,3.7c0.9,0,1.6-0.4,1.9-0.8h0.1v0.5c0,1.4-0.7,2.2-1.9,2.2
		c-1,0-1.6-0.7-1.9-1.3l-1.4,0.6c0.4,1,1.5,2.2,3.2,2.2c1.9,0,3.4-1.1,3.4-3.8v-6.6h-1.5V22.8z M67.9,27.9c-1.1,0-2-0.9-2-2.2
		c0-1.3,0.9-2.2,2-2.2s1.9,1,1.9,2.2C69.9,27,69.1,27.9,67.9,27.9z M88.9,18.3h-3.8v10.8h1.6v-4h2.2c1.8,0,3.5-1.3,3.5-3.4
		S90.7,18.3,88.9,18.3z M88.9,23.6h-2.2v-3.7h2.2c1.2,0,1.9,1,1.9,1.9C90.8,22.5,90.1,23.6,88.9,23.6z M98.9,22
		c-1.2,0-2.4,0.5-2.8,1.6l1.4,0.6c0.3-0.6,0.9-0.8,1.5-0.8c0.8,0,1.6,0.5,1.7,1.3v0.1c-0.3-0.1-0.9-0.4-1.6-0.4
		c-1.5,0-3.1,0.8-3.1,2.4c0,1.4,1.3,2.4,2.7,2.4c1,0,1.6-0.4,2-1h0.1V29h1.6v-4C102.1,23.1,100.7,22,98.9,22z M98.6,27.9
		c-0.5,0-1.3-0.3-1.3-0.9c0-0.8,0.9-1.1,1.7-1.1c0.7,0,1,0.1,1.5,0.4C100.4,27.2,99.6,27.9,98.6,27.9z M107.8,22.2l-1.9,4.6h-0.1
		l-1.9-4.6h-1.7l2.8,6.5l-1.6,3.6h1.6l4.4-10.2L107.8,22.2L107.8,22.2z M93.3,29.1h1.6V18.3h-1.6V29.1z"/>
	<path class="st1" d="M19.2,20L10,29.7l0,0c0.3,1,1.3,1.8,2.4,1.8c0.4,0,0.9-0.1,1.3-0.4l0,0l10.3-6L19.2,20z"/>
	<path class="st2" d="M28.5,18.3L28.5,18.3L24,15.7l-5,4.5l5,5l4.4-2.5c0.7-0.4,1.3-1.3,1.3-2.2C29.7,19.6,29.2,18.8,28.5,18.3z"/>
	<path class="st3" d="M10,11.3C10,11.5,10,11.8,10,12v17.2c0,0.2,0,0.4,0.1,0.7l9.4-9.5L10,11.3z"/>
	<path class="st4" d="M19.3,20.5l4.7-4.7l-10.3-6c-0.4-0.2-0.8-0.4-1.3-0.4c-1.1,0-2.1,0.7-2.4,1.9l0,0L19.3,20.5z"/>
</g>
</svg>
